<svg height="512" viewBox="0 0 512 512" width="512" xmlns="http://www.w3.org/2000/svg"><g id="Cannon"><g id="Flat"><circle cx="440" cy="400" fill="#0277bd" r="56"/><path d="m455.35 346.156c27.1 42.837-12.977 97.886-62.7 83.688a55.984 55.984 0 1 0 62.7-83.688z" fill="#0469bc"/><path d="m76.736 195.971a36.864 36.864 0 0 0 -33.372-21.353h-3.364a8 8 0 0 1 0-16h3.364a52.912 52.912 0 0 1 47.9 30.648 8 8 0 0 1 -14.528 6.705z" fill="#c9a86f"/><path d="m69.989 242.188c-5.336-2.386-4.113-6.289-15.335-34.552a8 8 0 0 1 4.568-10.215c45.23-16.981 45.469-19.893 50.863-17.481 5.336 2.386 4.112 6.288 15.334 34.552a8 8 0 0 1 -4.567 10.216l-44.662 17.619a8 8 0 0 1 -6.201-.139z" fill="#ffc400"/><path d="m8 340.241c-20.435-41.2-4.39-86.433 28.4-99.467l227.884-90.116a8 8 0 0 1 10.109 3.884l42.654 86a8 8 0 0 1 -3.025 10.4c-216.816 131.217-209.681 126.904-209.844 126.995-34.366 19.554-77.569-.167-96.178-37.696z" fill="#ffd740"/><path d="m293.424 192.93a287.942 287.942 0 0 1 -284.324 149.417c21.889 41.355 66.919 52.576 95.26 35.481l209.65-126.883a8 8 0 0 0 3.025-10.4z" fill="#ffc400"/><path d="m301.157 249.278-42.655-86a23.842 23.842 0 0 1 -1.242-18.326c6.806-20.2 34.8-22.043 44.244-3l42.655 86a24.027 24.027 0 0 1 -10.837 32.164 24.026 24.026 0 0 1 -32.165-10.838z" fill="#ffc400"/><path d="m344.159 227.951-34.734-70.034a286.991 286.991 0 0 1 -26.992 53.609l18.724 37.752a24 24 0 0 0 43-21.327z" fill="#f2b200"/><path d="m9.565 451-8.983-22.261a8 8 0 0 1 3.489-9.963c168.01-93.565 161.717-93.983 168.215-91.708a8 8 0 0 1 4.774 4.556l17.966 44.51a8 8 0 0 1 -4.424 10.413l-170.624 68.871a8 8 0 0 1 -10.413-4.418z" fill="#decba0"/><g fill="#f29c9c"><path d="m317.238 124.436a8 8 0 0 1 3.49-10.762l35.636-18.182a8 8 0 0 1 7.272 14.252l-35.636 18.182a8 8 0 0 1 -10.762-3.49z"/><path d="m368.874 218.254a8 8 0 0 1 3.49-10.762l30-15.306a8 8 0 0 1 7.272 14.252l-30 15.306a8 8 0 0 1 -10.762-3.49z"/><path d="m353.007 186.5a8 8 0 0 1 3.108-10.878l79-43.889a8 8 0 0 1 7.77 13.986l-79 43.889a8 8 0 0 1 -10.878-3.108z"/><path d="m337.007 154.5a8 8 0 0 1 3.108-10.878l101-56.111a8 8 0 0 1 7.77 13.986l-101 56.111a8 8 0 0 1 -10.878-3.108z"/><circle cx="392" cy="78.618" r="8"/><circle cx="472" cy="78.618" r="8"/><circle cx="504" cy="62.618" r="8"/><circle cx="472" cy="126.618" r="8"/><circle cx="440" cy="182.618" r="8"/></g><circle cx="384" cy="400" fill="#0277bd" r="56"/><path d="m295 328c-57.035.05-53.976-.114-55.535.125a39.773 39.773 0 0 0 -6.43-16.031l41.308-40.094a8 8 0 1 0 -11.314-11.313l-41.478 40.26a39.754 39.754 0 0 0 -13.578-5.529c.042-.731.021-33.187.027-54.219 0-5.081-3.582-9.2-8-9.2s-8 4.118-8 9.2c.006 21.032-.015 53.488.027 54.219a39.758 39.758 0 0 0 -14.162 5.9l-41.865-40.631a8 8 0 0 0 -11.313 11.313l41.9 40.667a39.764 39.764 0 0 0 -6.03 15.333h-48.557a8 8 0 0 0 0 16h49.122a39.8 39.8 0 0 0 5.626 12.822l-42.061 40.825a8 8 0 0 0 11.313 11.314l42.12-40.883a39.76 39.76 0 0 0 13.88 5.735v56.321c0 5.449 3.582 9.866 8 9.866s8-4.417 8-9.866v-56.321a39.736 39.736 0 0 0 13.3-5.36l41.733 40.508a8 8 0 0 0 11.314-11.314l-41.481-40.262a39.812 39.812 0 0 0 6.067-13.606c2.007.42-.427.138 56.071.221 4.971 0 9-3.582 9-8s-4.033-8-9.004-8zm-119 6.618a24 24 0 1 1 24 24 24.028 24.028 0 0 1 -24-24z" fill="#e2e2e2"/><path d="m200 214.62a120 120 0 1 0 120 120 120.134 120.134 0 0 0 -120-120zm0 208a88 88 0 1 1 88-88 88.1 88.1 0 0 1 -88 88z" fill="#c9a86f"/><circle cx="44" cy="276" fill="#ffe7a4" r="20"/><circle cx="24" cy="312" fill="#ffe7a4" r="8"/><circle cx="364" cy="372" fill="#4baee0" r="12"/><circle cx="276" cy="148" fill="#ffe7a4" r="12"/><path d="m399.35 346.156c27.1 42.837-12.977 97.886-62.7 83.688a55.984 55.984 0 1 0 62.7-83.688z" fill="#0469bc"/></g></g></svg>